# xmcd
#
# Track frame offsets:
#	151
#	13768
#	25555
#	38285
#	49237
#	62300
#	75053
#	87894
#	99199
#	112423
#	125439
#	137992
#	149276
#	161272
#	173948
#	185295
#	198586
#	210549
#	222724
#	235539
#	251294
#	261218
#	273200
#	286102
#	297387
#	311798
#
# Disc length: 4340
#
# Revision: 3
# Processed by: cddbd v1.5.1PL0 Copyright (c) Steve Scherf et al.
# Submitted via: CDex 1.40Release
# Normalized: r2:TDELIM( - )
#
DISCID=6610f21a
DTITLE=Various Artist - The Specialty Story - Disc 2
DYEAR=1900
DGENRE=
TTITLE0=Joe Liggins and His Honeydrippers - Pink Champagne
TTITLE1=Roy Milton and His Solid Senders - Junior Jives
TTITLE2=Roy Milton and His Solid Senders - Where There Is No Love
TTITLE3=King Perry and His Pied Pipers - Everything's Gonna Be Allright Tonight
TTITLE4=Percy Mayfield - Please Send Me Someone To Love
TTITLE5=Percy Mayfield - Strange Things Happening
TTITLE6=Joe Liggins and His Honeydrippers - Little Joe's Boogie
TTITLE7=Roy Milton And His Solid Senders - Oh Babe
TTITLE8=Percy Mayfield - Lost Love
TTITLE9=Joe Liggins and His Honeydrippers - Frankie Lee
TTITLE10=Percy Mayfield - What A Fool I Was
TTITLE11=Camille Howard - Money Blues
TTITLE12=Roy Milton And His Solid Senders - It's Later Than You Think
TTITLE13=Roy Milton And His Solid Senders - T-Town Twist
TTITLE14=Roy Milton And His Solid Senders - I Have News For You
TTITLE15=Percy Mayfield - Prayin' For Your Return
TTITLE16=Amos Easton (Bumble Bee Slim) - Strange Angel
TTITLE17=Roy Milton And His Solid Senders - Best Wishes
TTITLE18=Percy Mayfield - Cry Baby
TTITLE19=Lil Greenwood - Love Will Make You A Slave
TTITLE20=Lester Williams - I Can't Lose With The Stuff I Use
TTITLE21=Four Flames - Wheel Of Fortune
TTITLE22=Percy Mayfield - The Big Question
TTITLE23=Lloyd Price - Lawdy Miss Clawdy
TTITLE24=Roy Milton And His Solid Senders - So Tired
TTITLE25=Roy Milton And His Solid Senders - Night And Day (I Miss You So)
EXTD=
EXTT0=
EXTT1=
EXTT2=
EXTT3=
EXTT4=
EXTT5=
EXTT6=
EXTT7=
EXTT8=
EXTT9=
EXTT10=
EXTT11=
EXTT12=
EXTT13=
EXTT14=
EXTT15=
EXTT16=
EXTT17=
EXTT18=
EXTT19=
EXTT20=
EXTT21=
EXTT22=
EXTT23=
EXTT24=
EXTT25=
PLAYORDER=
